<svg width="20" height="16" viewBox="0 0 20 16" fill="none" xmlns="http://www.w3.org/2000/svg">
<path d="M15.0007 14.6667V12.1667H12.5007V10.5H15.0007V8H16.6673V10.5H19.1673V12.1667H16.6673V14.6667H15.0007ZM2.50065 15.5C2.04232 15.5 1.64996 15.3368 1.32357 15.0104C0.997179 14.684 0.833984 14.2917 0.833984 13.8333V2.16667C0.833984 1.70833 0.997179 1.31597 1.32357 0.989583C1.64996 0.663194 2.04232 0.5 2.50065 0.5H14.1673C14.6257 0.5 15.018 0.663194 15.3444 0.989583C15.6708 1.31597 15.834 1.70833 15.834 2.16667V6.33333H14.1673V4.66667H2.50065V13.8333H13.334V15.5H2.50065ZM2.50065 3H14.1673V2.16667H2.50065V3Z" fill="#044899"/>
</svg>
