<svg width="16" height="18" viewBox="0 0 16 18" fill="none" xmlns="http://www.w3.org/2000/svg">
<path d="M2.16667 17.3332C1.70833 17.3332 1.31597 17.17 0.989583 16.8436C0.663194 16.5172 0.5 16.1248 0.5 15.6665V3.99984C0.5 3.5415 0.663194 3.14914 0.989583 2.82275C1.31597 2.49637 1.70833 2.33317 2.16667 2.33317H3V0.666504H4.66667V2.33317H11.3333V0.666504H13V2.33317H13.8333C14.2917 2.33317 14.684 2.49637 15.0104 2.82275C15.3368 3.14914 15.5 3.5415 15.5 3.99984V15.6665C15.5 16.1248 15.3368 16.5172 15.0104 16.8436C14.684 17.17 14.2917 17.3332 13.8333 17.3332H2.16667ZM2.16667 15.6665H13.8333V7.33317H2.16667V15.6665ZM2.16667 5.6665H13.8333V3.99984H2.16667V5.6665Z" fill="#044899"/>
</svg>
