<svg width="16" height="6" viewBox="0 0 16 6" fill="none" xmlns="http://www.w3.org/2000/svg">
<path d="M0.58152 5.36864C1.16997 3.77682 2.1482 2.4978 3.51621 1.53159C4.88423 0.565369 6.41821 0.0760823 8.11817 0.0637274C9.25563 0.0554605 10.3354 0.272619 11.3574 0.715204C12.3794 1.15779 13.2808 1.78875 14.0618 2.6081L14.043 0.020667L15.543 0.00976562L15.5811 5.25963L10.3313 5.29778L10.3204 3.79782L13.0953 3.77765C12.4526 3.06981 11.7018 2.52212 10.8427 2.13461C9.98357 1.74709 9.07904 1.55678 8.12907 1.56369C6.8541 1.57295 5.68471 1.91896 4.62089 2.60171C3.55708 3.28446 2.75435 4.20282 2.21273 5.35679L0.58152 5.36864Z" fill="#848484"/>
</svg>
