<svg width="8" height="12" viewBox="0 0 8 12" fill="none" xmlns="http://www.w3.org/2000/svg">
<path d="M3.18281 8.33333C3.18281 7.54583 3.2533 6.97951 3.39427 6.63438C3.53524 6.28924 3.8342 5.9125 4.29115 5.50417C4.68976 5.15417 4.99358 4.85035 5.2026 4.59271C5.41163 4.33507 5.51615 4.04097 5.51615 3.71042C5.51615 3.31181 5.38247 2.98125 5.1151 2.71875C4.84774 2.45625 4.47587 2.325 3.99948 2.325C3.50365 2.325 3.12691 2.47569 2.86927 2.77708C2.61163 3.07847 2.42934 3.38472 2.3224 3.69583L0.820312 3.05417C1.02448 2.43194 1.39878 1.89236 1.94323 1.43542C2.48767 0.978472 3.17309 0.75 3.99948 0.75C5.02031 0.75 5.80538 1.03437 6.35469 1.60312C6.90399 2.17188 7.17865 2.85486 7.17865 3.65208C7.17865 4.13819 7.07413 4.55382 6.8651 4.89896C6.65608 5.2441 6.32795 5.63542 5.88073 6.07292C5.40434 6.52986 5.1151 6.87743 5.01302 7.11562C4.91094 7.35382 4.8599 7.75972 4.8599 8.33333H3.18281ZM3.99948 11.8333C3.67865 11.8333 3.40399 11.7191 3.17552 11.4906C2.94705 11.2622 2.83281 10.9875 2.83281 10.6667C2.83281 10.3458 2.94705 10.0712 3.17552 9.84271C3.40399 9.61424 3.67865 9.5 3.99948 9.5C4.32031 9.5 4.59497 9.61424 4.82344 9.84271C5.05191 10.0712 5.16615 10.3458 5.16615 10.6667C5.16615 10.9875 5.05191 11.2622 4.82344 11.4906C4.59497 11.7191 4.32031 11.8333 3.99948 11.8333Z" fill="white"/>
</svg>
