<svg width="16" height="12" viewBox="0 0 16 12" fill="none" xmlns="http://www.w3.org/2000/svg">
<path d="M9.5 12V10.5H11.75C11.9625 10.5 12.1406 10.4281 12.2844 10.2844C12.4281 10.1406 12.5 9.9625 12.5 9.75V8.25C12.5 7.775 12.6375 7.34375 12.9125 6.95625C13.1875 6.56875 13.55 6.29375 14 6.13125V5.86875C13.55 5.70625 13.1875 5.43125 12.9125 5.04375C12.6375 4.65625 12.5 4.225 12.5 3.75V2.25C12.5 2.0375 12.4281 1.85938 12.2844 1.71563C12.1406 1.57188 11.9625 1.5 11.75 1.5H9.5V0H11.75C12.375 0 12.9062 0.21875 13.3438 0.65625C13.7812 1.09375 14 1.625 14 2.25V3.75C14 3.9625 14.0719 4.14062 14.2156 4.28438C14.3594 4.42812 14.5375 4.5 14.75 4.5H15.5V7.5H14.75C14.5375 7.5 14.3594 7.57188 14.2156 7.71563C14.0719 7.85938 14 8.0375 14 8.25V9.75C14 10.375 13.7812 10.9062 13.3438 11.3438C12.9062 11.7812 12.375 12 11.75 12H9.5ZM4.25 12C3.625 12 3.09375 11.7812 2.65625 11.3438C2.21875 10.9062 2 10.375 2 9.75V8.25C2 8.0375 1.92813 7.85938 1.78437 7.71563C1.64062 7.57188 1.4625 7.5 1.25 7.5H0.5V4.5H1.25C1.4625 4.5 1.64062 4.42812 1.78437 4.28438C1.92813 4.14062 2 3.9625 2 3.75V2.25C2 1.625 2.21875 1.09375 2.65625 0.65625C3.09375 0.21875 3.625 0 4.25 0H6.5V1.5H4.25C4.0375 1.5 3.85938 1.57188 3.71562 1.71563C3.57187 1.85938 3.5 2.0375 3.5 2.25V3.75C3.5 4.225 3.3625 4.65625 3.0875 5.04375C2.8125 5.43125 2.45 5.70625 2 5.86875V6.13125C2.45 6.29375 2.8125 6.56875 3.0875 6.95625C3.3625 7.34375 3.5 7.775 3.5 8.25V9.75C3.5 9.9625 3.57187 10.1406 3.71562 10.2844C3.85938 10.4281 4.0375 10.5 4.25 10.5H6.5V12H4.25Z" fill="#232325"/>
</svg>
