<svg width="14" height="14" viewBox="0 0 14 14" fill="none" xmlns="http://www.w3.org/2000/svg">
<path d="M1.75 13.75C1.3375 13.75 0.984375 13.6031 0.690625 13.3094C0.396875 13.0156 0.25 12.6625 0.25 12.25V1.75C0.25 1.3375 0.396875 0.984375 0.690625 0.690625C0.984375 0.396875 1.3375 0.25 1.75 0.25H12.25C12.6625 0.25 13.0156 0.396875 13.3094 0.690625C13.6031 0.984375 13.75 1.3375 13.75 1.75V12.25C13.75 12.6625 13.6031 13.0156 13.3094 13.3094C13.0156 13.6031 12.6625 13.75 12.25 13.75H1.75ZM1.75 12.25H12.25V1.75H1.75V12.25ZM2.5 10.75H11.5L8.6875 7L6.4375 10L4.75 7.75L2.5 10.75Z" fill="#232325"/>
</svg>
