<svg width="16" height="8" viewBox="0 0 16 8" fill="none" xmlns="http://www.w3.org/2000/svg">
<path d="M7.25 7.75146H4.25C3.2125 7.75146 2.32812 7.38584 1.59687 6.65459C0.865625 5.92334 0.5 5.03896 0.5 4.00146C0.5 2.96396 0.865625 2.07959 1.59687 1.34834C2.32812 0.61709 3.2125 0.251465 4.25 0.251465H7.25V1.75146H4.25C3.625 1.75146 3.09375 1.97021 2.65625 2.40771C2.21875 2.84521 2 3.37646 2 4.00146C2 4.62646 2.21875 5.15771 2.65625 5.59521C3.09375 6.03271 3.625 6.25146 4.25 6.25146H7.25V7.75146ZM5 4.75146V3.25146H11V4.75146H5ZM8.75 7.75146V6.25146H11.75C12.375 6.25146 12.9062 6.03271 13.3438 5.59521C13.7812 5.15771 14 4.62646 14 4.00146C14 3.37646 13.7812 2.84521 13.3438 2.40771C12.9062 1.97021 12.375 1.75146 11.75 1.75146H8.75V0.251465H11.75C12.7875 0.251465 13.6719 0.61709 14.4031 1.34834C15.1344 2.07959 15.5 2.96396 15.5 4.00146C15.5 5.03896 15.1344 5.92334 14.4031 6.65459C13.6719 7.38584 12.7875 7.75146 11.75 7.75146H8.75Z" fill="#232325"/>
</svg>
