<svg width="13" height="10" viewBox="0 0 13 10" fill="none" xmlns="http://www.w3.org/2000/svg">
<path d="M1.275 9.5L3 6.5C2.175 6.5 1.46875 6.20625 0.88125 5.61875C0.29375 5.03125 0 4.325 0 3.5C0 2.675 0.29375 1.96875 0.88125 1.38125C1.46875 0.79375 2.175 0.5 3 0.5C3.825 0.5 4.53125 0.79375 5.11875 1.38125C5.70625 1.96875 6 2.675 6 3.5C6 3.7875 5.96563 4.05312 5.89688 4.29688C5.82812 4.54063 5.725 4.775 5.5875 5L3 9.5H1.275ZM8.025 9.5L9.75 6.5C8.925 6.5 8.21875 6.20625 7.63125 5.61875C7.04375 5.03125 6.75 4.325 6.75 3.5C6.75 2.675 7.04375 1.96875 7.63125 1.38125C8.21875 0.79375 8.925 0.5 9.75 0.5C10.575 0.5 11.2812 0.79375 11.8687 1.38125C12.4563 1.96875 12.75 2.675 12.75 3.5C12.75 3.7875 12.7156 4.05312 12.6469 4.29688C12.5781 4.54063 12.475 4.775 12.3375 5L9.75 9.5H8.025ZM3 4.625C3.3125 4.625 3.57812 4.51562 3.79688 4.29688C4.01562 4.07812 4.125 3.8125 4.125 3.5C4.125 3.1875 4.01562 2.92188 3.79688 2.70312C3.57812 2.48438 3.3125 2.375 3 2.375C2.6875 2.375 2.42188 2.48438 2.20312 2.70312C1.98438 2.92188 1.875 3.1875 1.875 3.5C1.875 3.8125 1.98438 4.07812 2.20312 4.29688C2.42188 4.51562 2.6875 4.625 3 4.625ZM9.75 4.625C10.0625 4.625 10.3281 4.51562 10.5469 4.29688C10.7656 4.07812 10.875 3.8125 10.875 3.5C10.875 3.1875 10.7656 2.92188 10.5469 2.70312C10.3281 2.48438 10.0625 2.375 9.75 2.375C9.4375 2.375 9.17188 2.48438 8.95312 2.70312C8.73438 2.92188 8.625 3.1875 8.625 3.5C8.625 3.8125 8.73438 4.07812 8.95312 4.29688C9.17188 4.51562 9.4375 4.625 9.75 4.625Z" fill="#232325"/>
</svg>
