<svg width="14" height="12" viewBox="0 0 14 12" fill="none" xmlns="http://www.w3.org/2000/svg">
<path d="M10.25 12V10.5C10.25 10.2875 10.3219 10.1094 10.4656 9.96563C10.6094 9.82188 10.7875 9.75 11 9.75H12.5V9H10.25V8.25H12.5C12.7125 8.25 12.8906 8.32188 13.0344 8.46563C13.1781 8.60938 13.25 8.7875 13.25 9V9.75C13.25 9.9625 13.1781 10.1406 13.0344 10.2844C12.8906 10.4281 12.7125 10.5 12.5 10.5H11V11.25H13.25V12H10.25ZM0.40625 10.5L3.875 5.04375L0.65 0H2.6375L4.9625 3.75H5.0375L7.34375 0H9.35L6.10625 5.04375L9.59375 10.5H7.5875L5.0375 6.43125H4.9625L2.4125 10.5H0.40625Z" fill="#232325"/>
</svg>
