<svg width="14" height="12" viewBox="0 0 14 12" fill="none" xmlns="http://www.w3.org/2000/svg">
<path d="M10.25 3.75V2.25C10.25 2.0375 10.3219 1.85938 10.4656 1.71563C10.6094 1.57188 10.7875 1.5 11 1.5H12.5V0.75H10.25V0H12.5C12.7125 0 12.8906 0.071875 13.0344 0.215625C13.1781 0.359375 13.25 0.5375 13.25 0.75V1.5C13.25 1.7125 13.1781 1.89063 13.0344 2.03438C12.8906 2.17813 12.7125 2.25 12.5 2.25H11V3H13.25V3.75H10.25ZM0.40625 12L3.875 6.54375L0.65 1.5H2.6375L4.9625 5.25H5.0375L7.34375 1.5H9.35L6.10625 6.54375L9.59375 12H7.5875L5.0375 7.93125H4.9625L2.4125 12H0.40625Z" fill="#232325"/>
</svg>
