<svg width="14" height="14" viewBox="0 0 14 14" fill="none" xmlns="http://www.w3.org/2000/svg">
<path d="M0.25 12.25V1.75C0.25 1.3375 0.396875 0.984375 0.690625 0.690625C0.984375 0.396875 1.3375 0.25 1.75 0.25H12.25C12.6625 0.25 13.0156 0.396875 13.3094 0.690625C13.6031 0.984375 13.75 1.3375 13.75 1.75V12.25C13.75 12.6625 13.6031 13.0156 13.3094 13.3094C13.0156 13.6031 12.6625 13.75 12.25 13.75H1.75C1.3375 13.75 0.984375 13.6031 0.690625 13.3094C0.396875 13.0156 0.25 12.6625 0.25 12.25ZM1.75 4.75H12.25V1.75H1.75V4.75ZM5.74375 8.5H8.25625V6.25H5.74375V8.5ZM5.74375 12.25H8.25625V10H5.74375V12.25ZM1.75 8.5H4.24375V6.25H1.75V8.5ZM9.75625 8.5H12.25V6.25H9.75625V8.5ZM1.75 12.25H4.24375V10H1.75V12.25ZM9.75625 12.25H12.25V10H9.75625V12.25Z" fill="#232325"/>
</svg>
