<svg width="16" height="6" viewBox="0 0 16 6" fill="black" xmlns="http://www.w3.org/2000/svg">
<path d="M15.5842 5.35637C14.9931 3.76495 14.0116 2.48661 12.6395 1.52134C11.2674 0.556064 9.72929 0.0678354 8.02514 0.056653C6.88487 0.0491707 5.80264 0.267074 4.77845 0.710363C3.75426 1.15365 2.85102 1.78524 2.06871 2.60512L2.08569 0.0176793L0.582031 0.0078125L0.547582 5.2577L5.81039 5.29223L5.82023 3.79227L3.03846 3.77401C3.68219 3.06572 4.43452 2.51752 5.29544 2.12941C6.15636 1.7413 7.06298 1.55037 8.0153 1.55662C9.29341 1.56501 10.4659 1.91021 11.5329 2.59222C12.5998 3.27424 13.4051 4.19204 13.9489 5.34564L15.5842 5.35637Z" fill="#232325"/>
</svg>
