<svg width="16" height="12" viewBox="0 0 16 12" fill="none" xmlns="http://www.w3.org/2000/svg">
<path d="M6.125 9.375L11.375 6L6.125 2.625V9.375ZM2 12C1.5875 12 1.23438 11.8531 0.940625 11.5594C0.646875 11.2656 0.5 10.9125 0.5 10.5V1.5C0.5 1.0875 0.646875 0.734375 0.940625 0.440625C1.23438 0.146875 1.5875 0 2 0H14C14.4125 0 14.7656 0.146875 15.0594 0.440625C15.3531 0.734375 15.5 1.0875 15.5 1.5V10.5C15.5 10.9125 15.3531 11.2656 15.0594 11.5594C14.7656 11.8531 14.4125 12 14 12H2ZM2 10.5H14V1.5H2V10.5Z" fill="#232325"/>
</svg>
