<svg width="16" height="21" viewBox="0 0 16 21" fill="none" xmlns="http://www.w3.org/2000/svg">
<path d="M0 17.8035V15.8243H2V8.89718C2 7.52825 2.41667 6.31188 3.25 5.24807C4.08333 4.18426 5.16667 3.48743 6.5 3.15756V2.46485C6.5 2.05252 6.64583 1.70204 6.9375 1.41341C7.22917 1.12478 7.58333 0.980469 8 0.980469C8.41667 0.980469 8.77083 1.12478 9.0625 1.41341C9.35417 1.70204 9.5 2.05252 9.5 2.46485V3.15756C10.8333 3.48743 11.9167 4.18426 12.75 5.24807C13.5833 6.31188 14 7.52825 14 8.89718V15.8243H16V17.8035H0ZM8 20.7722C7.45 20.7722 6.97917 20.5785 6.5875 20.1909C6.19583 19.8033 6 19.3373 6 18.7931H10C10 19.3373 9.80417 19.8033 9.4125 20.1909C9.02083 20.5785 8.55 20.7722 8 20.7722ZM4 15.8243H12V8.89718C12 7.80863 11.6083 6.87677 10.825 6.10159C10.0417 5.32641 9.1 4.93882 8 4.93882C6.9 4.93882 5.95833 5.32641 5.175 6.10159C4.39167 6.87677 4 7.80863 4 8.89718V15.8243Z" fill="#044899"/>
</svg>
