<svg width="22" height="20" viewBox="0 0 22 20" fill="none" xmlns="http://www.w3.org/2000/svg">
<path d="M8.25117 19.999L7.85117 16.799C7.63451 16.7157 7.43034 16.6157 7.23867 16.499C7.04701 16.3824 6.85951 16.2574 6.67617 16.124L3.70117 17.374L0.951172 12.624L3.52617 10.674C3.50951 10.5574 3.50117 10.4449 3.50117 10.3365V9.66152C3.50117 9.55319 3.50951 9.44069 3.52617 9.32402L0.951172 7.37402L3.70117 2.62402L6.67617 3.87402C6.85951 3.74069 7.05117 3.61569 7.25117 3.49902C7.45117 3.38236 7.65117 3.28236 7.85117 3.19902L8.25117 -0.000976562H13.7512L14.1512 3.19902C14.3678 3.28236 14.572 3.38236 14.7637 3.49902C14.9553 3.61569 15.1428 3.74069 15.3262 3.87402L18.3012 2.62402L21.0512 7.37402L18.4762 9.32402C18.4928 9.44069 18.5012 9.55319 18.5012 9.66152V10.3365C18.5012 10.4449 18.4845 10.5574 18.4512 10.674L21.0262 12.624L18.2762 17.374L15.3262 16.124C15.1428 16.2574 14.9512 16.3824 14.7512 16.499C14.5512 16.6157 14.3512 16.7157 14.1512 16.799L13.7512 19.999H8.25117ZM10.0012 17.999H11.9762L12.3262 15.349C12.8428 15.2157 13.322 15.0199 13.7637 14.7615C14.2053 14.5032 14.6095 14.1907 14.9762 13.824L17.4512 14.849L18.4262 13.149L16.2762 11.524C16.3595 11.2907 16.4178 11.0449 16.4512 10.7865C16.4845 10.5282 16.5012 10.2657 16.5012 9.99902C16.5012 9.73236 16.4845 9.46986 16.4512 9.21152C16.4178 8.95319 16.3595 8.70736 16.2762 8.47402L18.4262 6.84902L17.4512 5.14902L14.9762 6.19902C14.6095 5.81569 14.2053 5.49486 13.7637 5.23652C13.322 4.97819 12.8428 4.78236 12.3262 4.64902L12.0012 1.99902H10.0262L9.67617 4.64902C9.15951 4.78236 8.68034 4.97819 8.23867 5.23652C7.79701 5.49486 7.39284 5.80736 7.02617 6.17402L4.55117 5.14902L3.57617 6.84902L5.72617 8.44902C5.64284 8.69902 5.58451 8.94902 5.55117 9.19902C5.51784 9.44902 5.50117 9.71569 5.50117 9.99902C5.50117 10.2657 5.51784 10.524 5.55117 10.774C5.58451 11.024 5.64284 11.274 5.72617 11.524L3.57617 13.149L4.55117 14.849L7.02617 13.799C7.39284 14.1824 7.79701 14.5032 8.23867 14.7615C8.68034 15.0199 9.15951 15.2157 9.67617 15.349L10.0012 17.999ZM11.0512 13.499C12.0178 13.499 12.8428 13.1574 13.5262 12.474C14.2095 11.7907 14.5512 10.9657 14.5512 9.99902C14.5512 9.03236 14.2095 8.20736 13.5262 7.52402C12.8428 6.84069 12.0178 6.49902 11.0512 6.49902C10.0678 6.49902 9.23867 6.84069 8.56367 7.52402C7.88867 8.20736 7.55117 9.03236 7.55117 9.99902C7.55117 10.9657 7.88867 11.7907 8.56367 12.474C9.23867 13.1574 10.0678 13.499 11.0512 13.499Z" fill="#044899"/>
</svg>
